<svg xmlns="http://www.w3.org/2000/svg" width="43" height="30.385" viewBox="0 0 43 30.385">
  <path id="Tracé_23" data-name="Tracé 23" d="M32.212,6.827V8.4m0,6.308v1.577m0,6.308v1.577m0,6.308v1.577M13.288,21.019H24.327M13.288,25.75H19.6M4.615,5.25A2.366,2.366,0,0,0,2.25,7.615v6.362a6.306,6.306,0,0,1,3.159,5.465A6.306,6.306,0,0,1,2.25,24.907v6.362a2.366,2.366,0,0,0,2.365,2.365H40.885a2.366,2.366,0,0,0,2.365-2.365V24.907a6.306,6.306,0,0,1,0-10.929V7.615A2.366,2.366,0,0,0,40.885,5.25Z" transform="translate(44.25 34.635) rotate(-180)" fill="none" stroke="#a3c3d9" stroke-linecap="round" stroke-linejoin="round" stroke-width="2"/>
</svg>
