<svg xmlns="http://www.w3.org/2000/svg" width="15.698" height="15.654" viewBox="0 0 15.698 15.654">
  <path id="Tracé_84" data-name="Tracé 84" d="M17.923,10.708a7.817,7.817,0,0,0-.761-4.027,10.266,10.266,0,0,1-3.493,2.18A15.286,15.286,0,0,1,13.5,12.7a13.817,13.817,0,0,0,4.426-1.994Zm-5.7,2.252a13.945,13.945,0,0,0,.267-3.741A10.282,10.282,0,0,1,10.1,9.5,10.282,10.282,0,0,1,7.71,9.22a14.1,14.1,0,0,0,.267,3.741,13.994,13.994,0,0,0,4.24,0ZM8.3,14.224a15.264,15.264,0,0,0,3.587,0A13.83,13.83,0,0,1,10.1,17.93,13.829,13.829,0,0,1,8.3,14.224ZM6.7,12.7A15.189,15.189,0,0,1,6.526,8.86a10.265,10.265,0,0,1-3.493-2.18,7.817,7.817,0,0,0-.76,4.028A13.817,13.817,0,0,0,6.7,12.7Zm10.93-.385a7.86,7.86,0,0,1-6.019,5.487,15,15,0,0,0,1.6-3.8,14.994,14.994,0,0,0,4.419-1.689Zm-15.062,0a14.987,14.987,0,0,0,4.419,1.69,15,15,0,0,0,1.6,3.8,7.86,7.86,0,0,1-6.019-5.486ZM11.61,2.4a7.852,7.852,0,0,1,4.923,3.208,9.069,9.069,0,0,1-3.015,2.016A15,15,0,0,0,11.61,2.4ZM10.1,2.276a13.806,13.806,0,0,1,2.258,5.732,9.081,9.081,0,0,1-2.258.284A9.043,9.043,0,0,1,7.84,8.008,13.805,13.805,0,0,1,10.1,2.276ZM8.586,2.4A15,15,0,0,0,6.679,7.624,9.068,9.068,0,0,1,3.663,5.608,7.851,7.851,0,0,1,8.586,2.4Z" transform="translate(-2.249 -2.276)" fill="#1f2d3d"/>
</svg>
